<svg width="37" height="54" viewBox="0 0 37 54" fill="none" xmlns="http://www.w3.org/2000/svg">
<path d="M18.6345 48.8016C20.1198 42.917 21.6051 36.8986 23.0905 31.014C23.3605 29.944 23.6306 28.8741 23.9007 27.9379C24.0357 27.1355 24.5758 26.868 25.251 27.2692C28.4917 28.6066 31.5974 29.944 34.8382 31.2814C36.0534 31.8164 36.7286 32.8863 36.7286 34.2238C36.7286 40.3759 36.7286 46.528 36.7286 52.5464C36.7286 53.4826 36.3235 53.75 35.3783 53.75C24.0357 53.75 12.8281 53.75 1.48554 53.75C0.540325 53.75 0.270264 53.3488 0.270264 52.5464C0.270264 46.2605 0.270264 39.9747 0.270264 33.6888C0.270264 32.3514 0.945418 31.2814 2.29573 30.7465C5.40144 29.5428 8.50714 28.3391 11.6129 27.1355C12.5581 26.7342 12.8281 27.0017 13.0982 28.2054C14.7186 34.625 16.3389 41.1783 17.9593 47.5979C18.0943 47.9992 18.2294 48.4004 18.2294 48.8016C18.4994 48.8016 18.4994 48.8016 18.6345 48.8016ZM17.2842 51.8777C15.3937 44.2544 13.5033 36.6311 11.6129 29.0078C8.91224 30.0778 6.21162 31.014 3.64603 31.9502C2.56579 32.3514 2.02566 33.0201 2.02566 34.2238C2.02566 39.7072 2.02566 45.3243 2.02566 50.8077C2.02566 51.209 2.02566 51.4764 2.02566 51.8777C7.15684 51.8777 12.153 51.8777 17.2842 51.8777ZM19.5797 51.8777C24.7108 51.8777 29.707 51.8777 34.7031 51.8777C34.7031 51.7439 34.8382 51.6102 34.8382 51.4764C34.8382 45.5918 34.8382 39.8409 34.8382 33.9563C34.8382 33.5551 34.4331 32.8863 34.028 32.7526C31.1923 31.4152 28.3567 30.2115 25.251 29.0078C23.4956 36.7649 21.6051 44.2544 19.5797 51.8777Z" fill="white"/>
<path d="M7.96711 12.1564C7.69705 9.21406 8.50724 6.27174 10.6677 3.86439C13.5034 0.788337 17.8244 -0.415337 21.8753 1.05582C25.9262 2.39324 28.7619 6.138 28.8969 10.4177C28.8969 12.5576 29.0319 14.6975 28.4918 16.7036C27.4116 21.652 22.4154 25.1293 17.5543 24.5943C12.1531 24.0594 8.10214 19.7796 7.96711 14.43C7.96711 13.7613 7.96711 13.0926 7.96711 12.1564ZM9.72251 12.5576C9.72251 13.0926 9.72251 13.7613 9.72251 14.2962C9.99258 18.9772 13.2333 22.4545 17.8244 22.8557C22.0103 23.2569 26.0613 20.3146 26.8714 16.1686C27.2765 14.1625 27.2765 12.1564 27.0065 10.0165C26.6014 5.73678 23.0906 2.39324 18.7696 2.25949C14.7187 1.99201 10.8028 4.93433 9.85755 9.08032C9.72251 10.1503 9.72251 11.3539 9.72251 12.5576Z" fill="white"/>
<path d="M21.8752 28.6066C21.7402 28.8741 21.6052 29.409 21.2001 29.8102C20.6599 30.6127 20.3899 31.4151 20.5249 32.4851C20.5249 32.7526 20.5249 33.1538 20.6599 33.4213C21.3351 35.6949 20.6599 37.8347 19.7147 39.8409C19.4447 40.2421 18.9045 40.7771 18.4994 40.7771C18.0943 40.7771 17.5542 40.2421 17.2842 39.8409C15.9339 37.5673 15.9339 35.0262 16.474 32.4851C16.744 31.5489 16.474 30.6127 15.7988 29.8102C15.2587 29.0078 14.8536 28.2053 15.3937 27.2692C15.9339 26.333 16.8791 26.1992 17.8243 26.1992C18.4994 26.1992 19.3096 26.1992 19.9848 26.1992C21.065 26.333 21.8752 27.2692 21.8752 28.6066ZM18.4994 37.9685C19.3096 36.7648 19.1746 35.5611 19.0396 34.3575C18.6345 32.2176 18.4994 30.2115 20.1198 28.4728C20.2548 28.3391 20.1198 28.2053 20.2548 28.0716C19.1746 28.0716 18.0943 28.0716 16.744 28.0716C17.0141 28.6066 17.2842 28.874 17.4192 29.1415C17.6893 30.2115 18.0943 31.1477 18.2294 32.2176C18.3644 33.02 18.0943 33.8225 17.9593 34.6249C17.6893 35.9624 17.6893 37.0323 18.4994 37.9685Z" fill="white"/>
</svg>
