<svg width="50" height="42" viewBox="0 0 50 42" fill="none" xmlns="http://www.w3.org/2000/svg">
<path d="M30.6911 29.6992C31.5875 29.585 32.3718 29.4708 33.1562 29.4708C33.8285 29.4708 34.1646 29.2424 34.3887 28.6715C36.1816 23.5333 37.9744 18.3951 39.7672 13.2569C39.8792 12.9143 39.9913 12.4576 40.2154 12.115C37.078 9.37464 36.2936 6.40589 37.9744 3.43714C39.431 0.810943 42.6805 -0.330884 45.3697 0.69676C48.171 1.7244 49.7397 4.69315 49.1795 7.6619C48.5072 10.9732 46.042 12.8001 42.1203 12.6859C42.0082 13.1427 41.7841 13.5994 41.56 14.1703C39.7672 19.1944 37.9744 24.3326 36.1816 29.3566C35.9575 29.9275 35.9575 30.1559 36.5177 30.6126C39.431 32.8963 39.8792 36.7785 37.7503 39.5189C35.5093 42.2593 31.5875 42.6018 29.0103 40.3182C26.3211 37.9203 26.209 33.9239 28.6742 31.1835C28.7862 31.0694 28.8983 30.9552 29.0103 30.841C28.8983 30.6126 28.7862 30.2701 28.5621 30.0417C25.8729 25.4744 23.1837 20.9071 20.4944 16.3398C20.1583 15.7689 19.9342 15.5405 19.1498 15.7689C18.2534 15.9972 17.357 15.9972 16.4606 15.7689C15.9004 15.6547 15.6763 15.8831 15.4522 16.3398C13.8834 19.4227 12.3147 22.6198 10.634 25.7028C10.2978 26.2737 10.2978 26.6162 10.8581 27.1871C12.875 29.2424 13.2111 32.3254 11.7545 34.8374C10.2978 37.2352 7.49655 38.377 4.80733 37.5778C2.1181 36.7785 0.325292 34.1523 0.437342 31.2977C0.549393 27.5297 4.02297 24.7893 7.8327 25.4744C8.0568 25.4744 8.16885 25.5886 8.505 25.5886C10.4099 21.9347 12.2027 18.3951 14.1075 14.7412C12.6509 13.4852 11.7545 11.8867 11.7545 9.94556C11.7545 7.09099 13.4352 4.69315 16.0124 3.89388C18.5896 3.0946 21.3909 4.12224 22.8475 6.4059C24.4162 8.68955 24.1921 11.7725 22.3993 13.942C21.8391 14.5129 21.8391 14.9696 22.2873 15.5405C25.0885 20.1078 27.8898 24.9035 30.6911 29.6992ZM21.8391 9.71719C21.8391 7.43354 20.0462 5.60662 17.8052 5.49243C15.5642 5.49243 13.7714 7.31936 13.6593 9.60301C13.6593 11.8867 15.4522 13.7136 17.6932 13.8278C19.9342 13.8278 21.8391 12.0008 21.8391 9.71719ZM47.2746 6.52008C47.2746 4.23642 45.4818 2.4095 43.2408 2.4095C40.9998 2.4095 39.2069 4.23642 39.2069 6.52008C39.2069 8.80373 40.9998 10.6307 43.2408 10.6307C45.4818 10.7448 47.2746 8.80373 47.2746 6.52008ZM10.634 31.5261C10.634 29.2424 8.84116 27.4155 6.60014 27.4155C4.35912 27.4155 2.56631 29.2424 2.56631 31.5261C2.56631 33.8097 4.35912 35.6367 6.60014 35.6367C8.7291 35.6367 10.634 33.8097 10.634 31.5261ZM33.0441 39.7472C35.2852 39.7472 37.078 37.9203 37.19 35.6367C37.19 33.353 35.3972 31.5261 33.1562 31.5261C30.9152 31.5261 29.1224 33.353 29.0103 35.6367C28.8983 37.8061 30.8031 39.7472 33.0441 39.7472Z" fill="white"/>
</svg>
