<svg width="49" height="49" viewBox="0 0 49 49" fill="none" xmlns="http://www.w3.org/2000/svg">
<g clip-path="url(#clip0_0_1994)">
<path d="M22.9488 26.0217C23.8406 26.0217 24.5838 26.0217 25.3271 26.0217C30.8083 26.0217 36.2895 26.0217 41.7521 26.0217C43.2385 26.0217 43.4615 26.2816 43.3872 27.7848C42.774 38.1776 35.6577 46.1764 25.4014 47.9766C14.3461 49.9252 3.10493 42.0935 1.09825 31.014C-1.03849 19.285 6.24501 8.42817 17.9135 6.01555C19.0655 5.77429 20.236 5.70005 21.4066 5.60726C22.6515 5.51447 22.9302 5.81141 22.9488 7.07339C22.9488 12.975 22.9488 18.8767 22.9488 24.7783C22.9488 25.168 22.9488 25.5392 22.9488 26.0217ZM21.1651 7.48168C12.4694 7.50024 2.77048 15.035 2.4732 26.5599C2.21307 37.5652 11.6333 46.8631 22.5957 46.4548C34.1899 46.0279 41.5291 36.2104 41.492 27.8034C41.1575 27.8034 40.8231 27.8034 40.4886 27.8034C34.5429 27.8034 28.5972 27.8034 22.6515 27.8034C21.3694 27.8034 21.1465 27.5621 21.1465 26.2816C21.1465 20.3428 21.1465 14.404 21.1465 8.46529C21.1651 8.14979 21.1651 7.81574 21.1651 7.48168Z" fill="white"/>
<path d="M37.0885 22.9225C33.9299 22.9225 30.7712 22.9225 27.6125 22.9225C26.2562 22.9225 26.0332 22.6998 26.0332 21.3635C26.0332 14.9979 26.0332 8.63233 26.0332 2.26673C26.0332 0.911948 26.2562 0.689244 27.594 0.726362C37.9432 0.893389 47.0662 9.2262 48.1067 19.5077C48.181 20.1758 48.2367 20.8625 48.2553 21.5306C48.2925 22.6441 48.0138 22.9225 46.9175 22.9225C44.6507 22.941 42.4025 22.9225 40.1357 22.9225C39.1324 22.9225 38.1104 22.9225 37.0885 22.9225ZM46.4159 21.1037C46.1186 10.3954 36.5869 2.50799 27.8727 2.6379C27.8727 8.7808 27.8727 14.9051 27.8727 21.0852C34.0599 21.1037 40.21 21.1037 46.4159 21.1037Z" fill="white"/>
</g>
<defs>
<clipPath id="clip0_0_1994">
<rect width="47.5472" height="47.5472" fill="white" transform="translate(0.726562 0.72644)"/>
</clipPath>
</defs>
</svg>
